<?xml version="1.0" encoding="UTF-8" standalone="no"?>
<!-- Generator: Adobe Illustrator 18.0.0, SVG Export Plug-In . SVG Version: 6.00 Build 0)  -->

<svg
   version="1.1"
   id="Layer_1"
   x="0px"
   y="0px"
   viewBox="0 0 300 345"
   enable-background="new 0 0 360 360"
   xml:space="preserve"
   sodipodi:docname="D20 Dice.svg"
   width="300"
   height="345"
   inkscape:version="1.2.2 (732a01da63, 2022-12-09)"
   xmlns:inkscape="http://www.inkscape.org/namespaces/inkscape"
   xmlns:sodipodi="http://sodipodi.sourceforge.net/DTD/sodipodi-0.dtd"
   xmlns="http://www.w3.org/2000/svg"
   xmlns:svg="http://www.w3.org/2000/svg"><defs
   id="defs55" /><sodipodi:namedview
   id="namedview53"
   pagecolor="#ffffff"
   bordercolor="#000000"
   borderopacity="0.25"
   inkscape:showpageshadow="2"
   inkscape:pageopacity="0.0"
   inkscape:pagecheckerboard="0"
   inkscape:deskcolor="#d1d1d1"
   showgrid="false"
   inkscape:zoom="2.325"
   inkscape:cx="186.02151"
   inkscape:cy="183.22581"
   inkscape:window-width="1678"
   inkscape:window-height="1041"
   inkscape:window-x="2057"
   inkscape:window-y="1"
   inkscape:window-maximized="0"
   inkscape:current-layer="Layer_1" />
<g
   id="g50"
   transform="matrix(1.009761,0,0,1.0123239,-31.706495,-10.37632)">
	<g
   id="g48">
		<g
   id="g22">
			<polygon
   fill="#3372a0"
   points="38.6,94.5 178.3,105.8 178.3,13.9 "
   id="polygon2" />
			<polygon
   fill="#3372a0"
   points="34.8,263.4 93.4,252.3 34.8,104.6 "
   id="polygon4" />
			<polygon
   fill="#3372a0"
   points="35.7,97.7 96,249.7 177.2,109.1 "
   id="polygon6" />
			<polygon
   fill="#3372a0"
   points="180,111 98.7,251.9 261.3,251.9 "
   id="polygon8" />
			<polygon
   fill="#3372a0"
   points="181.7,105.8 321.4,94.5 181.7,13.9 "
   id="polygon10" />
			<polygon
   fill="#3372a0"
   points="324.3,97.7 182.8,109.1 264,249.7 "
   id="polygon12" />
			<polygon
   fill="#3372a0"
   points="322.1,266.2 264.9,255.4 188,343.7 "
   id="polygon14" />
			<polygon
   fill="#3372a0"
   points="325.2,104.6 266.6,252.3 325.2,263.4 "
   id="polygon16" />
			<polygon
   fill="#3372a0"
   points="180,347.7 260.5,255.2 99.5,255.2 "
   id="polygon18" />
			<polygon
   fill="#3372a0"
   points="172,343.7 95.1,255.4 37.9,266.2 "
   id="polygon20" />
		</g>
		<g
   opacity="0.25"
   id="g44">
			<polygon
   fill="#ffffff"
   points="38.6,94.5 68.1,96.9 178.3,13.9 "
   id="polygon24" />
			<polygon
   fill="#ffffff"
   points="34.8,263.4 43.3,261.8 34.8,104.6 "
   id="polygon26" />
			<polygon
   fill="#ffffff"
   points="35.7,97.7 96,249.7 108.5,228.1 "
   id="polygon28" />
			<polygon
   fill="#ffffff"
   points="98.7,251.9 116.9,251.9 192.9,133.4 180,111 "
   id="polygon30" />
			<polygon
   fill="#ffffff"
   points="181.7,105.8 209.3,103.6 181.7,13.9 "
   id="polygon32" />
			<polygon
   fill="#ffffff"
   points="324.3,97.7 182.8,109.1 195.5,131.1 "
   id="polygon34" />
			<polygon
   fill="#ffffff"
   points="282.5,258.7 264.9,255.4 188,343.7 "
   id="polygon36" />
			<polygon
   fill="#ffffff"
   points="325.2,104.6 266.6,252.3 282.3,255.2 "
   id="polygon38" />
			<polygon
   fill="#ffffff"
   points="180,347.7 118,255.4 99.5,255.2 "
   id="polygon40" />
			<polygon
   fill="#ffffff"
   points="103.7,265.3 95.1,255.4 37.9,266.2 "
   id="polygon42" />
		</g>
		<path
   fill="#303030"
   d="m 328.4,99.6 c 0,-3.1 -1.7,-6 -4.4,-7.6 L 183.9,11.3 c -2.4,-1.4 -5.4,-1.4 -7.9,0 L 35.6,92.9 c -2.5,1.5 -4.1,4.2 -4.1,7.1 l -0.1,161.8 c 0,2.8 1.5,5.4 3.9,6.8 L 176.1,350 c 2.4,1.4 5.3,1.4 7.7,0 l 140.8,-81.3 c 2.4,-1.4 3.9,-4 3.9,-6.8 z m -61.3,151.3 55.8,-140.4 c 0.5,-1.2 2.3,-0.9 2.3,0.4 v 150.9 c 0,0.8 -0.7,1.3 -1.4,1.2 L 268,252.5 c -0.7,-0.1 -1.2,-0.9 -0.9,-1.6 z m -164.9,4.3 h 155.7 c 1,0 1.6,1.2 0.9,2 L 181,346.6 c -0.5,0.6 -1.4,0.6 -1.8,0 l -77.8,-89.4 c -0.8,-0.7 -0.3,-2 0.8,-2 z M 181.1,112.9 260.2,250 c 0.5,0.8 -0.1,1.8 -1.1,1.8 H 100.8 c -0.9,0 -1.5,-1 -1.1,-1.8 l 79.2,-137.2 c 0.5,-0.7 1.7,-0.7 2.2,0.1 z m 3.6,-3.9 137.7,-11.1 c 0.9,-0.1 1.6,0.8 1.2,1.7 l -58.7,147.8 c -0.4,0.9 -1.7,1 -2.2,0.2 L 183.8,110.9 c -0.5,-0.9 0,-1.9 0.9,-1.9 z M 95.1,247.3 36.4,99.5 c -0.3,-0.8 0.3,-1.7 1.2,-1.7 L 175.3,109 c 0.9,0.1 1.4,1 1,1.8 l -79,136.7 c -0.5,0.9 -1.8,0.8 -2.2,-0.2 z M 181.7,104.5 V 16 c 0,-0.9 1,-1.5 1.8,-1.1 L 318,92.6 c 1,0.6 0.7,2.2 -0.5,2.3 L 183,105.7 c -0.7,0.1 -1.3,-0.5 -1.3,-1.2 z M 178.3,16 v 88.5 c 0,0.7 -0.6,1.3 -1.3,1.2 L 42.5,94.8 C 41.3,94.7 41,93.1 42,92.5 L 176.5,14.9 c 0.8,-0.4 1.8,0.2 1.8,1.1 z M 92,252.5 36.2,263.1 c -0.7,0.1 -1.4,-0.4 -1.4,-1.2 V 111 c 0,-1.3 1.9,-1.7 2.3,-0.4 L 92.9,251 c 0.3,0.6 -0.2,1.4 -0.9,1.5 z m -50.9,13.1 53.3,-10.1 c 0.4,-0.1 0.9,0.1 1.1,0.4 l 71.7,82.3 c 0.9,1 -0.3,2.5 -1.5,1.9 l -125,-72.2 c -1,-0.6 -0.7,-2.1 0.4,-2.3 z m 224.5,-10.1 53.3,10.1 c 1.1,0.2 1.4,1.7 0.4,2.2 l -125,72.2 c -1.2,0.7 -2.4,-0.8 -1.5,-1.9 l 71.7,-82.3 c 0.2,-0.2 0.6,-0.4 1.1,-0.3 z"
   id="path46" />
	</g>
</g>
</svg>
